<?xml version="1.0" encoding="UTF-8" standalone="no"?>
<!-- Created with Inkscape (http://www.inkscape.org/) -->

<svg
   xmlns:dc="http://purl.org/dc/elements/1.1/"
   xmlns:cc="http://creativecommons.org/ns#"
   xmlns:rdf="http://www.w3.org/1999/02/22-rdf-syntax-ns#"
   xmlns:svg="http://www.w3.org/2000/svg"
   xmlns="http://www.w3.org/2000/svg"
   xmlns:sodipodi="http://sodipodi.sourceforge.net/DTD/sodipodi-0.dtd"
   xmlns:inkscape="http://www.inkscape.org/namespaces/inkscape"
   width="188.33563mm"
   height="102.97753mm"
   viewBox="0 0 667.33098 364.88102"
   id="svg3398"
   version="1.1"
   inkscape:version="0.91 r13725"
   sodipodi:docname="typescriptusers.svg">
  <defs
     id="defs3400" />
  <sodipodi:namedview
     id="base"
     pagecolor="#ffffff"
     bordercolor="#666666"
     borderopacity="1.0"
     inkscape:pageopacity="0.0"
     inkscape:pageshadow="2"
     inkscape:zoom="0.35"
     inkscape:cx="-94.19165"
     inkscape:cy="18.742732"
     inkscape:document-units="px"
     inkscape:current-layer="layer1"
     showgrid="false"
     fit-margin-top="0"
     fit-margin-left="0"
     fit-margin-right="0"
     fit-margin-bottom="0"
     inkscape:window-width="2560"
     inkscape:window-height="1414"
     inkscape:window-x="1920"
     inkscape:window-y="0"
     inkscape:window-maximized="1" />
  <metadata
     id="metadata3403">
    <rdf:RDF>
      <cc:Work
         rdf:about="">
        <dc:format>image/svg+xml</dc:format>
        <dc:type
           rdf:resource="http://purl.org/dc/dcmitype/StillImage" />
        <dc:title></dc:title>
      </cc:Work>
    </rdf:RDF>
  </metadata>
  <g
     inkscape:label="Layer 1"
     inkscape:groupmode="layer"
     id="layer1"
     transform="translate(-44.905936,-186.22393)">
    <g
       style="display:inline"
       id="layer1-3"
       transform="matrix(1.8167022,0,0,1.8167022,119.23237,260.6432)">
      <g
         transform="matrix(0.97361263,0,0,1.0000573,-1.0740504,-0.00340969)"
         id="g3337"
         style="fill:#007acc">
        <rect
           y="-40.525574"
           x="-40.485909"
           height="199.97128"
           width="376.42136"
           id="rect3349"
           style="fill:#003366;fill-opacity:1;fill-rule:evenodd;stroke:#000000;stroke-width:0.86521292px;stroke-linecap:butt;stroke-linejoin:miter;stroke-opacity:1" />
        <flowRoot
           style="font-style:normal;font-variant:normal;font-weight:normal;font-stretch:normal;font-size:56.25px;line-height:125%;font-family:'Segoe UI';-inkscape-font-specification:'Segoe UI, Normal';text-align:start;letter-spacing:0px;word-spacing:0px;writing-mode:lr-tb;text-anchor:start;fill:#000000;fill-opacity:1;stroke:none;stroke-width:1px;stroke-linecap:butt;stroke-linejoin:miter;stroke-opacity:1"
           id="flowRoot3365"
           xml:space="preserve"><flowRegion
             id="flowRegion3367"><rect
               style="font-style:normal;font-variant:normal;font-weight:normal;font-stretch:normal;font-size:56.25px;line-height:125%;font-family:'Segoe UI';-inkscape-font-specification:'Segoe UI, Normal';text-align:start;writing-mode:lr-tb;text-anchor:start"
               y="87.533783"
               x="100.40472"
               height="61.590118"
               width="170.33517"
               id="rect3369" /></flowRegion><flowPara
             id="flowPara3371" /></flowRoot>      </g>
    </g>
    <g
       style="display:inline"
       id="layer2"
       transform="matrix(1.8167022,0,0,1.8167022,119.23237,260.6432)">
      <text
         id="text3373"
         y="119.29118"
         x="30.489813"
         style="font-style:normal;font-variant:normal;font-weight:normal;font-stretch:normal;font-size:56.25px;line-height:125%;font-family:'Segoe UI';-inkscape-font-specification:'Segoe UI, Normal';text-align:start;letter-spacing:0px;word-spacing:0px;writing-mode:lr-tb;text-anchor:start;display:inline;fill:#000000;fill-opacity:1;stroke:none;stroke-width:1px;stroke-linecap:butt;stroke-linejoin:miter;stroke-opacity:1"
         xml:space="preserve"
         sodipodi:linespacing="125%"><tspan
           style="font-style:normal;font-variant:normal;font-weight:normal;font-stretch:normal;font-size:56.25px;line-height:125%;font-family:'Segoe UI';-inkscape-font-specification:'Segoe UI, Normal';text-align:start;writing-mode:lr-tb;text-anchor:start;fill:#f29100;fill-opacity:1"
           y="119.29118"
           x="30.489813"
           id="tspan3375">UsersDE</tspan></text>
      <path
         style="display:inline;fill:#ffffff"
         id="path3339"
         d="m 34.98,7.56 -14.55,0 0,45.07 -5.91,0 0,-45.07 -14.52,0 0,-5.35 34.98,0 0,5.35 z"
         inkscape:connector-curvature="0" />
      <path
         style="display:inline;fill:#ffffff"
         id="path3341"
         d="M 57.94,16.63 41.38,58.39 c -2.95,7.45 -7.1,11.18 -12.45,11.18 -1.5,0 -2.75,-0.15 -3.76,-0.46 l 0,-5.17 c 1.24,0.42 2.38,0.63 3.41,0.63 2.91,0 5.09,-1.73 6.54,-5.2 L 38,52.55 23.94,16.63 l 6.4,0 9.74,27.7 c 0.12,0.35 0.36,1.27 0.74,2.74 l 0.21,0 c 0.12,-0.56 0.35,-1.45 0.7,-2.67 l 10.23,-27.77 5.98,0 z"
         inkscape:connector-curvature="0" />
      <path
         style="display:inline;fill:#ffffff"
         id="path3343"
         d="m 67.37,47.43 -0.14,0 0,21.76 -5.77,0 0,-52.56 5.77,0 0,6.33 0.14,0 c 2.84,-4.78 6.98,-7.17 12.45,-7.17 4.64,0 8.26,1.61 10.86,4.83 2.6,3.22 3.9,7.54 3.9,12.96 0,6.02 -1.46,10.85 -4.39,14.47 -2.93,3.62 -6.94,5.43 -12.02,5.43 -4.67,-0.01 -8.27,-2.02 -10.8,-6.05 z m -0.14,-14.52 0,5.03 c 0,2.98 0.97,5.5 2.9,7.58 1.93,2.08 4.39,3.11 7.37,3.11 3.49,0 6.23,-1.34 8.21,-4.01 1.98,-2.67 2.97,-6.39 2.97,-11.14 0,-4.01 -0.93,-7.15 -2.78,-9.42 -1.85,-2.27 -4.36,-3.41 -7.52,-3.41 -3.35,0 -6.05,1.17 -8.09,3.5 -2.04,2.32 -3.06,5.24 -3.06,8.76 z"
         inkscape:connector-curvature="0" />
      <path
         style="display:inline;fill:#ffffff"
         id="path3345"
         d="m 129.56,36.07 -25.42,0 c 0.09,4.01 1.17,7.1 3.23,9.28 2.06,2.18 4.9,3.27 8.51,3.27 4.05,0 7.78,-1.34 11.18,-4.01 l 0,5.41 c -3.16,2.3 -7.35,3.45 -12.55,3.45 -5.09,0 -9.08,-1.63 -11.99,-4.9 -2.91,-3.27 -4.36,-7.87 -4.36,-13.8 0,-5.6 1.59,-10.17 4.76,-13.69 3.18,-3.53 7.12,-5.29 11.83,-5.29 4.71,0 8.35,1.52 10.93,4.57 2.58,3.05 3.87,7.28 3.87,12.69 l 0,3.02 z m -5.91,-4.89 c -0.02,-3.33 -0.83,-5.92 -2.41,-7.77 -1.58,-1.85 -3.78,-2.78 -6.59,-2.78 -2.72,0 -5.03,0.97 -6.93,2.92 -1.9,1.95 -3.07,4.49 -3.52,7.63 l 19.45,0 z"
         inkscape:connector-curvature="0" />
      <path
         style="display:inline;fill:#ffffff"
         id="path3347"
         d="m 134.6,50.59 0,-6.96 c 0.73,0.7 1.6,1.34 2.62,1.9 1.02,0.56 2.09,1.04 3.22,1.42 1.13,0.38 2.26,0.69 3.39,0.9 1.14,0.21 2.19,0.32 3.15,0.32 3.32,0 5.81,-0.67 7.45,-2.02 1.64,-1.35 2.46,-3.29 2.46,-5.82 0,-1.36 -0.27,-2.54 -0.82,-3.55 -0.55,-1.01 -1.3,-1.93 -2.27,-2.76 -0.97,-0.83 -2.11,-1.63 -3.43,-2.39 -1.32,-0.76 -2.74,-1.56 -4.26,-2.41 -1.61,-0.89 -3.11,-1.79 -4.5,-2.71 -1.39,-0.91 -2.61,-1.92 -3.63,-3.02 -1.03,-1.1 -1.84,-2.35 -2.43,-3.74 -0.59,-1.39 -0.88,-3.03 -0.88,-4.9 0,-2.3 0.46,-4.29 1.38,-5.99 0.92,-1.7 2.13,-3.1 3.64,-4.2 1.5,-1.1 3.21,-1.92 5.13,-2.46 1.92,-0.54 3.88,-0.81 5.87,-0.81 4.55,0 7.86,0.6 9.94,1.79 l 0,6.64 c -2.72,-2.06 -6.22,-3.09 -10.49,-3.09 -1.18,0 -2.36,0.14 -3.54,0.4 -1.18,0.27 -2.23,0.71 -3.15,1.32 -0.92,0.61 -1.67,1.39 -2.25,2.36 -0.58,0.96 -0.87,2.13 -0.87,3.52 0,1.29 0.22,2.4 0.66,3.34 0.44,0.94 1.09,1.79 1.95,2.57 0.86,0.77 1.9,1.52 3.14,2.25 1.23,0.73 2.65,1.52 4.26,2.39 1.65,0.89 3.22,1.83 4.7,2.81 1.48,0.98 2.78,2.07 3.89,3.27 1.11,1.2 2,2.52 2.65,3.97 0.65,1.45 0.98,3.12 0.98,4.99 0,2.48 -0.45,4.59 -1.33,6.31 -0.89,1.72 -2.09,3.12 -3.6,4.2 -1.51,1.08 -3.25,1.86 -5.23,2.34 -1.97,0.48 -4.05,0.72 -6.24,0.72 -0.73,0 -1.63,-0.06 -2.7,-0.19 -1.07,-0.13 -2.17,-0.32 -3.28,-0.56 -1.12,-0.25 -2.17,-0.55 -3.17,-0.91 -1.01,-0.39 -1.8,-0.8 -2.41,-1.24 z"
         inkscape:connector-curvature="0" />
      <path
         style="display:inline;fill:#ffffff"
         id="path3349"
         d="m 193.25,50.98 c -2.77,1.66 -6.05,2.5 -9.84,2.5 -5.13,0 -9.28,-1.67 -12.43,-5.01 -3.15,-3.34 -4.73,-7.67 -4.73,-12.99 0,-5.93 1.7,-10.69 5.1,-14.29 3.4,-3.6 7.93,-5.4 13.61,-5.4 3.16,0 5.95,0.59 8.37,1.76 l 0,5.91 c -2.67,-1.88 -5.53,-2.81 -8.58,-2.81 -3.68,0 -6.7,1.32 -9.05,3.96 -2.35,2.64 -3.53,6.1 -3.53,10.39 0,4.22 1.11,7.55 3.32,9.98 2.21,2.43 5.19,3.66 8.91,3.66 3.14,0 6.09,-1.04 8.86,-3.13 l 0,5.47 z"
         inkscape:connector-curvature="0" />
      <path
         style="display:inline;fill:#ffffff"
         id="path3351"
         d="m 215.56,22.46 c -1.01,-0.77 -2.46,-1.16 -4.36,-1.16 -2.46,0 -4.52,1.16 -6.17,3.48 -1.65,2.32 -2.48,5.48 -2.48,9.49 l 0,18.35 -5.77,0 0,-36 5.77,0 0,7.42 0.14,0 c 0.82,-2.53 2.07,-4.51 3.76,-5.92 1.69,-1.42 3.57,-2.13 5.66,-2.13 1.5,0 2.65,0.16 3.45,0.49 l 0,5.98 z"
         inkscape:connector-curvature="0" />
      <path
         style="display:inline;fill:#ffffff"
         id="path3353"
         d="m 222.18,7.49 c -1.03,0 -1.91,-0.35 -2.64,-1.05 -0.73,-0.7 -1.09,-1.59 -1.09,-2.67 0,-1.08 0.36,-1.97 1.09,-2.69 0.73,-0.71 1.61,-1.07 2.64,-1.07 1.05,0 1.95,0.36 2.69,1.07 0.74,0.72 1.11,1.61 1.11,2.69 0,1.03 -0.37,1.91 -1.11,2.64 -0.74,0.71 -1.64,1.08 -2.69,1.08 z m 2.81,45.14 -5.77,0 0,-36 5.77,0 0,36 z"
         inkscape:connector-curvature="0" />
      <path
         style="display:inline;fill:#ffffff"
         id="path3355"
         d="m 234.29,47.43 -0.14,0 0,21.76 -5.77,0 0,-52.56 5.77,0 0,6.33 0.14,0 c 2.84,-4.78 6.98,-7.17 12.45,-7.17 4.64,0 8.26,1.61 10.86,4.83 2.6,3.22 3.9,7.54 3.9,12.96 0,6.02 -1.46,10.85 -4.39,14.47 -2.93,3.62 -6.94,5.43 -12.02,5.43 -4.67,-0.01 -8.27,-2.02 -10.8,-6.05 z m -0.14,-14.52 0,5.03 c 0,2.98 0.97,5.5 2.9,7.58 1.93,2.08 4.39,3.11 7.37,3.11 3.49,0 6.23,-1.34 8.21,-4.01 1.98,-2.67 2.97,-6.39 2.97,-11.14 0,-4.01 -0.93,-7.15 -2.78,-9.42 -1.85,-2.27 -4.36,-3.41 -7.52,-3.41 -3.35,0 -6.05,1.17 -8.09,3.5 -2.04,2.32 -3.06,5.24 -3.06,8.76 z"
         inkscape:connector-curvature="0" />
      <path
         style="display:inline;fill:#ffffff"
         id="path3357"
         d="m 283.09,52.28 c -1.36,0.75 -3.15,1.12 -5.38,1.12 -6.3,0 -9.46,-3.52 -9.46,-10.55 l 0,-21.3 -6.19,0 0,-4.92 6.19,0 0,-8.79 5.77,-1.86 0,10.65 9.07,0 0,4.92 -9.07,0 0,20.28 c 0,2.41 0.41,4.14 1.23,5.17 0.82,1.03 2.18,1.55 4.08,1.55 1.45,0 2.71,-0.4 3.76,-1.2 l 0,4.93 z"
         inkscape:connector-curvature="0" />
    </g>
  </g>
</svg>
